<svg width="100" height="50"  top="-1" xmlns="http://www.w3.org/2000/svg" viewBox="0 0 512 512">
  <path d="M342.435 267.609c-3.578-34.567-22.47-64.598-50.889-78.384l16.14-39.554v-1.958a26.623 26.623 0 0 0-26.593-26.59h-50.185a26.623 26.623 0 0 0-26.594 26.59v1.958l16.14 39.554c-28.422 13.786-47.311 43.817-50.889 78.384-2.886 27.934-22.976 109.968-22.976 109.968a475.443 475.443 0 0 0 109.41 13.3c58.61 0 109.412-13.3 109.412-13.3s-20.093-82.034-22.976-109.968zM230.908 141.073h50.184a6.647 6.647 0 0 1 6.467 5.117l-14.703 36.024 3.754 1.529a83.905 83.905 0 0 0-41.22 0l3.75-1.53-14.703-36.023a6.657 6.657 0 0 1 6.47-5.117zm35.421 195.197v11.478H248.61v-10.926c-14.297-1.685-24.798-8.824-29.669-20.222l-.655-1.533 16.443-6.973.645 1.536c2.613 6.205 11.65 10.883 21.017 10.883 4.209 0 17.941-.768 17.941-10.69 0-5.193-5.872-8.302-18.476-9.795-14.149-1.583-33.54-3.747-33.54-25.107 0-13.097 9.792-22.248 26.291-24.684V240.17h17.719v10.108c7.657 1.343 17.755 4.679 23.398 16.206l.748 1.527-15.132 7.002-.765-1.274c-2.65-4.378-10.437-7.81-17.735-7.81-4.915 0-16.35.878-16.35 8.987 0 5.832 7.372 7.173 17.007 8.323 15.059 1.858 35.684 4.403 35.684 26.58.004 16.336-13.24 24.927-26.852 26.45z" fill="white" data-name="Money Bag"/>
</svg>
